$MeshFormat
4.1 0 8
$EndMeshFormat
$PhysicalNames
5
1 1 "Oeste"
1 2 "Este"
1 3 "Norte"
1 4 "Sur"
2 5 "Dominio"
$EndPhysicalNames
$Entities
4 4 1 0
1 0 0 0 0 
2 1.5 0 0 0 
3 1.5 1.5 0 0 
4 0 1.5 0 0 
1 0 0 0 1.5 0 0 1 4 2 1 -2 
2 1.5 0 0 1.5 1.5 0 1 2 2 2 -3 
3 0 1.5 0 1.5 1.5 0 1 3 2 3 -4 
4 0 0 0 0 1.5 0 1 1 2 4 -1 
1 0 0 0 1.5 1.5 0 1 5 4 1 2 3 4 
$EndEntities
$Nodes
9 12 1 12
0 1 0 1
1
0 0 0
0 2 0 1
2
1.5 0 0
0 3 0 1
3
1.5 1.5 0
0 4 0 1
4
0 1.5 0
1 1 0 1
5
0.7499999999971427 0 0
1 2 0 1
6
1.5 0.7499999999971427 0
1 3 0 1
7
0.7500000000020832 1.5 0
1 4 0 1
8
0 0.7500000000020832 0
2 1 0 4
9
10
11
12
1.059374999999371 0.4406249999994147 0
0.9375000000006177 0.9374999999993827 0
0.5281249999996879 0.5343750000002845 0
0.4218750000009963 1.078125000000826 0
$EndNodes
$Elements
5 22 1 22
1 1 1 2
1 1 5 
2 5 2 
1 2 1 2
3 2 6 
4 6 3 
1 3 1 2
5 3 7 
6 7 4 
1 4 1 2
7 4 8 
8 8 1 
2 1 2 14
9 8 1 11 
10 6 3 10 
11 3 7 10 
12 1 5 11 
13 7 4 12 
14 4 8 12 
15 5 2 9 
16 2 6 9 
17 8 11 12 
18 9 6 10 
19 9 10 11 
20 10 7 12 
21 11 10 12 
22 5 9 11 
$EndElements
